<svg width="512" height="688" viewBox="0 0 512 688" fill="none" xmlns="http://www.w3.org/2000/svg">
<path d="M11.7582 112.279L13.2575 112.234V112.234L11.7582 112.279ZM1.58484 483.43L3.08482 483.421V483.421L1.58484 483.43ZM1.58484 585.178L0.0848672 585.187V585.187L1.58484 585.178ZM11.7581 204.05L10.2582 204.059V204.059L11.7581 204.05ZM509.696 290.259L508.196 290.267V290.267L509.696 290.259ZM509.696 394.028L511.196 394.02V394.02L509.696 394.028ZM255.157 686.65C255.746 687.233 256.696 687.227 257.278 686.638L266.768 677.036C267.35 676.447 267.345 675.497 266.755 674.915C266.166 674.332 265.216 674.338 264.634 674.927L256.199 683.462L247.664 675.027C247.075 674.444 246.125 674.45 245.543 675.039C244.96 675.628 244.966 676.578 245.555 677.16L255.157 686.65ZM256.211 0.00880432L254.711 0.0176053C254.717 1.07136 254.697 2.10154 254.652 3.10869L256.15 3.1763L257.649 3.24391C257.697 2.18428 257.718 1.10312 257.711 3.31178e-06L256.211 0.00880432ZM255.561 9.11319L254.079 8.87957C253.757 10.92 253.316 12.8525 252.763 14.6834L254.199 15.1173L255.635 15.5512C256.229 13.5831 256.7 11.5164 257.042 9.3468L255.561 9.11319ZM252.008 20.7741L250.656 20.1242C249.803 21.8987 248.823 23.5641 247.724 25.128L248.951 25.9905L250.178 26.8531C251.372 25.155 252.435 23.3474 253.36 21.4241L252.008 20.7741ZM245.069 30.6525L243.997 29.6037C242.643 30.9872 241.172 32.2774 239.589 33.4805L240.497 34.6747L241.405 35.8689C243.097 34.5823 244.679 33.1958 246.141 31.7014L245.069 30.6525ZM235.455 38.023L234.701 36.7259C233.037 37.6927 231.282 38.5894 229.441 39.4212L230.059 40.7881L230.677 42.155C232.602 41.2848 234.449 40.342 236.208 39.3201L235.455 38.023ZM224.397 43.0601L223.894 41.6468C222.051 42.3022 220.141 42.906 218.168 43.462L218.575 44.9057L218.982 46.3494C221.013 45.7768 222.987 45.1531 224.899 44.4734L224.397 43.0601ZM212.718 46.3834L212.389 44.9199C210.462 45.3535 208.486 45.7493 206.467 46.1109L206.731 47.5874L206.996 49.064C209.055 48.6953 211.074 48.2908 213.047 47.8468L212.718 46.3834ZM200.715 48.5494L200.504 47.0643C198.548 47.3423 196.556 47.5934 194.534 47.8202L194.701 49.3109L194.868 50.8015C196.918 50.5717 198.938 50.317 200.926 50.0345L200.715 48.5494ZM188.597 49.9172L188.467 48.4228C186.492 48.5953 184.493 48.7484 182.471 48.8846L182.572 50.3812L182.673 51.8778C184.713 51.7404 186.732 51.5858 188.728 51.4115L188.597 49.9172ZM176.475 50.7399L176.399 49.2419C174.4 49.3436 172.383 49.4316 170.35 49.5082L170.407 51.0071L170.463 52.5061C172.508 52.429 174.538 52.3404 176.551 52.238L176.475 50.7399ZM164.318 51.2033L164.277 49.7039C162.264 49.7586 160.238 49.8045 158.203 49.8437L158.232 51.3434L158.26 52.8431C160.303 52.8039 162.336 52.7578 164.358 52.7028L164.318 51.2033ZM152.147 51.4419L152.127 49.942C150.105 49.9693 148.076 49.992 146.042 50.0121L146.056 51.512L146.071 53.012C148.108 52.9918 150.141 52.9691 152.167 52.9417L152.147 51.4419ZM139.971 51.5663L139.959 50.0663C137.932 50.0831 135.902 50.0992 133.872 50.1167L133.884 51.6166L133.897 53.1166C135.927 53.0991 137.956 53.083 139.984 53.0662L139.971 51.5663ZM127.794 51.675L127.778 50.1751C125.747 50.1972 123.719 50.2225 121.694 50.2532L121.717 51.753L121.74 53.2528C123.759 53.2223 125.783 53.197 127.811 53.1749L127.794 51.675ZM115.618 51.8634L115.586 50.3638C113.552 50.4074 111.525 50.4583 109.506 50.5186L109.551 52.018L109.596 53.5173C111.605 53.4573 113.624 53.4065 115.65 53.3631L115.618 51.8634ZM103.447 52.2323L103.386 50.7336C101.345 50.8168 99.3165 50.9119 97.3016 51.021L97.3827 52.5188L97.4639 54.0166C99.4642 53.9083 101.48 53.8138 103.508 53.7311L103.447 52.2323ZM91.2923 52.8973L91.1866 51.401C89.1376 51.5457 87.1059 51.7078 85.0943 51.8897L85.2294 53.3836L85.3644 54.8775C87.3549 54.6975 89.367 54.537 91.398 54.3936L91.2923 52.8973ZM79.1804 54.0001L79.0103 52.5098C76.9519 52.7448 74.9183 53.0042 72.9125 53.2907L73.1246 54.7756L73.3367 56.2605C75.3124 55.9783 77.318 55.7225 79.3506 55.4905L79.1804 54.0001ZM67.1652 55.7251L66.9039 54.2481C64.841 54.6131 62.8125 55.0118 60.8224 55.4476L61.1432 56.9129L61.4641 58.3782C63.4118 57.9516 65.4004 57.5607 67.4266 57.2022L67.1652 55.7251ZM55.2433 58.3497L54.8524 56.9016C52.842 57.4443 50.8777 58.0322 48.9642 58.6693L49.4381 60.0925L49.912 61.5157C51.7666 60.8982 53.6753 60.3267 55.6342 59.7979L55.2433 58.3497ZM43.702 62.2224L43.1291 60.8361C41.1886 61.6379 39.3116 62.5022 37.5044 63.4341L38.1918 64.7673L38.8792 66.1005C40.6062 65.21 42.4063 64.3808 44.2748 63.6087L43.702 62.2224ZM32.9584 67.7968L32.141 66.539C30.3648 67.6933 28.6756 68.9316 27.081 70.2604L28.0413 71.4128L29.0016 72.5651C30.4997 71.3166 32.0929 70.1481 33.7757 69.0545L32.9584 67.7968ZM23.643 75.5951L22.5382 74.5805C21.1273 76.1168 19.8229 77.7508 18.6328 79.4885L19.8704 80.3361L21.108 81.1836C22.2157 79.5662 23.4309 78.0436 24.7477 76.6098L23.643 75.5951ZM16.7976 85.6026L15.4513 84.9413C14.551 86.7743 13.7601 88.7014 13.084 90.7269L14.5069 91.2018L15.9297 91.6767C16.5641 89.776 17.3042 87.9736 18.144 86.2639L16.7976 85.6026ZM12.9516 97.025L11.4822 96.7234C11.0729 98.7171 10.7609 100.793 10.5498 102.954L12.0427 103.099L13.5356 103.245C13.737 101.184 14.0337 99.2127 14.421 97.3267L12.9516 97.025ZM11.7262 109.106L10.2263 109.091C10.2153 110.15 10.226 111.228 10.2588 112.324L11.7582 112.279L13.2575 112.234C13.2259 111.177 13.2156 110.14 13.2261 109.122L11.7262 109.106ZM11.7582 112.279L10.2588 112.324C10.2871 113.272 10.3129 114.224 10.3361 115.181L11.8357 115.144L13.3353 115.108C13.3118 114.145 13.286 113.188 13.2575 112.234L11.7582 112.279ZM11.9465 120.879L10.4466 120.901C10.4742 122.783 10.4941 124.689 10.5075 126.625L12.0075 126.614L13.5075 126.604C13.494 124.661 13.474 122.747 13.4463 120.857L11.9465 120.879ZM12.0296 132.348L10.5296 132.35C10.5315 134.229 10.5289 136.138 10.5226 138.081L12.0226 138.086L13.5226 138.09C13.5289 136.144 13.5316 134.23 13.5296 132.347L12.0296 132.348ZM11.9954 143.823L10.4954 143.814C10.484 145.69 10.4704 147.599 10.4554 149.545L11.9554 149.556L13.4553 149.568C13.4704 147.621 13.484 145.71 13.4954 143.832L11.9954 143.823ZM11.9089 155.291L10.4089 155.278C10.3932 157.155 10.377 159.066 10.361 161.014L11.861 161.026L13.3609 161.039C13.3769 159.091 13.3931 157.18 13.4088 155.303L11.9089 155.291ZM11.8158 166.764L10.3158 166.752C10.3019 168.631 10.2887 170.544 10.2767 172.492L11.7767 172.501L13.2767 172.511C13.2886 170.563 13.3018 168.652 13.3158 166.775L11.8158 166.764ZM11.7463 178.232L10.2463 178.225C10.238 180.104 10.2312 182.015 10.2264 183.962L11.7264 183.965L13.2264 183.969C13.2312 182.025 13.2379 180.115 13.2463 178.238L11.7463 178.232ZM11.7186 189.707L10.2186 189.706C10.2181 191.586 10.2198 193.497 10.2239 195.441L11.7239 195.438L13.2239 195.435C13.2198 193.493 13.2181 191.584 13.2186 189.707L11.7186 189.707ZM11.7431 201.174L10.2431 201.181C10.2475 202.133 10.2525 203.092 10.2582 204.059L11.7581 204.05L13.2581 204.041C13.2525 203.075 13.2475 202.117 13.2431 201.167L11.7431 201.174ZM11.7581 204.05L10.2582 204.059C10.2648 205.182 10.3442 206.281 10.4956 207.355L11.981 207.146L13.4663 206.936C13.3341 205.999 13.2639 205.034 13.2581 204.041L11.7581 204.05ZM13.6228 212.875L12.2528 213.486C13.1164 215.423 14.2488 217.245 15.6284 218.956L16.7962 218.015L17.964 217.073C16.7348 215.549 15.7431 213.947 14.9929 212.264L13.6228 212.875ZM20.972 222.222L20.0101 223.373C21.5539 224.664 23.2635 225.879 25.1269 227.024L25.9124 225.746L26.6979 224.469C24.9428 223.39 23.3534 222.258 21.9339 221.071L20.972 222.222ZM31.2259 228.624L30.5774 229.977C32.3453 230.825 34.2149 231.629 36.1808 232.392L36.7238 230.994L37.2669 229.596C35.3651 228.857 33.5663 228.083 31.8743 227.272L31.2259 228.624ZM42.4812 233.026L42.0226 234.454C43.8896 235.054 45.8272 235.625 47.8323 236.168L48.2245 234.72L48.6167 233.272C46.6525 232.74 44.7593 232.182 42.9398 231.598L42.4812 233.026ZM54.0916 236.188L53.7541 237.649C55.7038 238.099 57.708 238.528 59.7644 238.935L60.0561 237.464L60.3479 235.993C58.3199 235.591 56.3463 235.169 54.4291 234.726L54.0916 236.188ZM65.9033 238.544L65.6491 240.022C67.6549 240.367 69.7045 240.695 71.7959 241.006L72.0167 239.523L72.2375 238.039C70.167 237.731 68.1397 237.407 66.1574 237.066L65.9033 238.544ZM77.8868 240.339L77.6935 241.827C79.6645 242.083 81.6688 242.326 83.7051 242.557L83.8741 241.067L84.043 239.576C82.0221 239.347 80.034 239.106 78.0801 238.852L77.8868 240.339ZM90.0288 241.717L89.8817 243.21C91.8204 243.401 93.7853 243.582 95.7752 243.753L95.9037 242.259L96.0323 240.764C94.0541 240.594 92.1016 240.414 90.1758 240.225L90.0288 241.717ZM101.931 242.742L101.819 244.238C103.854 244.39 105.913 244.533 107.994 244.667L108.091 243.171L108.187 241.674C106.115 241.54 104.067 241.398 102.043 241.247L101.931 242.742ZM113.997 243.525L113.914 245.023C115.906 245.133 117.918 245.237 119.949 245.334L120.02 243.835L120.091 242.337C118.069 242.241 116.065 242.138 114.08 242.027L113.997 243.525ZM126.154 244.104L126.094 245.603C128.073 245.683 130.069 245.756 132.079 245.824L132.13 244.325L132.18 242.826C130.176 242.758 128.187 242.685 126.214 242.606L126.154 244.104ZM138.133 244.51L138.091 246.009C140.109 246.065 142.142 246.116 144.187 246.162L144.221 244.662L144.255 243.163C142.214 243.117 140.187 243.066 138.174 243.01L138.133 244.51ZM150.287 244.783L150.26 246.283C152.245 246.318 154.241 246.348 156.248 246.375L156.268 244.875L156.288 243.375C154.285 243.348 152.293 243.318 150.313 243.283L150.287 244.783ZM162.315 244.942L162.301 246.442C164.33 246.46 166.368 246.475 168.416 246.487L168.425 244.987L168.433 243.487C166.388 243.475 164.353 243.461 162.329 243.442L162.315 244.942ZM174.421 245.01L174.418 246.51C176.417 246.514 178.424 246.516 180.439 246.514L180.438 245.014L180.437 243.514C178.425 243.516 176.42 243.514 174.425 243.51L174.421 245.01ZM186.501 245.002L186.506 246.502C188.527 246.496 190.556 246.487 192.591 246.475L192.583 244.975L192.574 243.475C190.541 243.487 188.515 243.496 186.496 243.502L186.501 245.002ZM198.581 244.935L198.592 246.435C200.599 246.419 202.611 246.402 204.628 246.383L204.613 244.883L204.599 243.383C202.584 243.402 200.574 243.419 198.569 243.435L198.581 244.935ZM210.677 244.82L210.694 246.32C212.708 246.298 214.726 246.274 216.748 246.248L216.73 244.749L216.711 243.249C214.69 243.274 212.673 243.298 210.66 243.32L210.677 244.82ZM222.748 244.67L222.769 246.17C224.779 246.143 226.793 246.114 228.809 246.085L228.787 244.585L228.766 243.085C226.75 243.114 224.737 243.143 222.728 243.17L222.748 244.67ZM234.843 244.495L234.866 245.995C236.878 245.964 238.893 245.933 240.909 245.902L240.886 244.402L240.862 242.902C238.846 242.934 236.832 242.965 234.821 242.995L234.843 244.495ZM246.918 244.306L246.942 245.806C248.955 245.774 250.968 245.742 252.982 245.709L252.958 244.209L252.934 242.71C250.92 242.742 248.907 242.774 246.895 242.806L246.918 244.306ZM259.002 244.113L259.026 245.613C261.041 245.58 263.056 245.548 265.071 245.517L265.047 244.017L265.024 242.517C263.009 242.549 260.993 242.581 258.978 242.613L259.002 244.113ZM271.09 243.924L271.112 245.424C273.126 245.394 275.138 245.364 277.149 245.335L277.127 243.835L277.105 242.335C275.094 242.364 273.081 242.394 271.067 242.424L271.09 243.924ZM283.156 243.751L283.176 245.251C285.197 245.223 287.216 245.197 289.232 245.172L289.213 243.672L289.195 242.172C287.177 242.197 285.157 242.224 283.135 242.251L283.156 243.751ZM295.263 243.601L295.279 245.101C297.292 245.079 299.302 245.058 301.308 245.039L301.293 243.539L301.279 242.039C299.271 242.058 297.26 242.079 295.246 242.101L295.263 243.601ZM307.306 243.487L307.317 244.987C309.347 244.972 311.373 244.958 313.394 244.947L313.386 243.447L313.377 241.947C311.354 241.958 309.326 241.972 307.294 241.988L307.306 243.487ZM319.436 243.419L319.441 244.919C321.452 244.912 323.457 244.908 325.456 244.906L325.454 243.406L325.453 241.906C323.452 241.908 321.444 241.912 319.431 241.919L319.436 243.419ZM331.476 243.409L331.473 244.909C333.508 244.913 335.536 244.92 337.556 244.93L337.564 243.43L337.571 241.93C335.548 241.92 333.517 241.913 331.479 241.909L331.476 243.409ZM343.607 243.47L343.594 244.97C345.599 244.987 347.595 245.007 349.583 245.031L349.601 243.532L349.619 242.032C347.628 242.008 345.628 241.987 343.62 241.97L343.607 243.47ZM355.661 243.617L355.637 245.117C357.672 245.15 359.697 245.188 361.712 245.229L361.743 243.73L361.774 242.23C359.755 242.188 357.725 242.151 355.685 242.118L355.661 243.617ZM367.761 243.869L367.722 245.369C369.718 245.42 371.702 245.476 373.674 245.537L373.72 244.038L373.767 242.538C371.789 242.477 369.8 242.421 367.799 242.37L367.761 243.869ZM379.852 244.246L379.797 245.745C381.824 245.82 383.838 245.9 385.836 245.987L385.902 244.489L385.967 242.99C383.961 242.903 381.941 242.822 379.908 242.747L379.852 244.246ZM391.863 244.768L391.788 246.266C393.823 246.369 395.843 246.478 397.845 246.595L397.932 245.098L398.019 243.6C396.009 243.483 393.982 243.373 391.939 243.27L391.863 244.768ZM404.013 245.478L403.913 246.975C405.917 247.109 407.902 247.251 409.867 247.401L409.981 245.906L410.095 244.41C408.12 244.259 406.126 244.117 404.113 243.982L404.013 245.478ZM415.984 246.396L415.854 247.89C417.905 248.069 419.933 248.257 421.936 248.455L422.084 246.963L422.232 245.47C420.216 245.27 418.177 245.081 416.114 244.902L415.984 246.396ZM428.037 247.59L427.869 249.081C429.88 249.306 431.862 249.543 433.816 249.791L434.005 248.303L434.194 246.815C432.225 246.565 430.228 246.327 428.204 246.1L428.037 247.59ZM440.086 249.127L439.872 250.612C441.858 250.898 443.811 251.198 445.729 251.512L445.971 250.032L446.214 248.551C444.276 248.234 442.304 247.932 440.301 247.642L440.086 249.127ZM451.957 251.077L451.682 252.552C453.705 252.928 455.684 253.322 457.617 253.734L457.93 252.267L458.243 250.8C456.282 250.383 454.278 249.984 452.232 249.602L451.957 251.077ZM463.642 253.569L463.287 255.026C465.339 255.526 467.332 256.049 469.264 256.596L469.673 255.152L470.081 253.709C468.111 253.152 466.082 252.619 463.997 252.111L463.642 253.569ZM475.342 256.883L474.873 258.308C476.851 258.96 478.753 259.641 480.574 260.353L481.12 258.955L481.666 257.558C479.79 256.825 477.837 256.126 475.811 255.458L475.342 256.883ZM486.598 261.3L485.96 262.658C487.84 263.54 489.61 264.463 491.266 265.426L492.02 264.13L492.775 262.833C491.035 261.821 489.186 260.858 487.235 259.942L486.598 261.3ZM496.951 267.36L496.058 268.565C497.718 269.796 499.213 271.083 500.54 272.428L501.608 271.374L502.676 270.321C501.229 268.855 499.615 267.468 497.845 266.155L496.951 267.36ZM505.384 275.99L504.134 276.818C505.199 278.425 506.06 280.106 506.71 281.867L508.117 281.347L509.524 280.827C508.79 278.84 507.822 276.952 506.635 275.161L505.384 275.99ZM509.506 287.154L508.017 287.331C508.13 288.285 508.19 289.264 508.196 290.267L509.696 290.259L511.196 290.25C511.19 289.137 511.123 288.046 510.996 286.977L509.506 287.154ZM509.696 290.259L508.196 290.267C508.202 291.262 508.207 292.232 508.212 293.177L509.712 293.169L511.212 293.161C511.207 292.215 511.202 291.245 511.196 290.25L509.696 290.259ZM509.738 298.929L508.238 298.935C508.246 300.962 508.251 302.869 508.255 304.675L509.755 304.673L511.255 304.67C511.251 302.862 511.246 300.953 511.238 298.924L509.738 298.929ZM509.76 310.442L508.26 310.441C508.259 312.477 508.256 314.385 508.251 316.203L509.751 316.207L511.251 316.211C511.256 314.391 511.259 312.481 511.26 310.442L509.76 310.442ZM509.728 321.974L508.228 321.966C508.217 323.928 508.206 325.825 508.193 327.721L509.693 327.731L511.193 327.741C511.206 325.844 511.217 323.946 511.228 321.981L509.728 321.974ZM509.654 333.49L508.154 333.481C508.142 335.329 508.13 337.233 508.119 339.246L509.619 339.254L511.119 339.262C511.13 337.251 511.142 335.348 511.154 333.501L509.654 333.49ZM509.592 345.008L508.092 345.002C508.086 346.813 508.08 348.725 508.077 350.767L509.577 350.77L511.076 350.772C511.08 348.733 511.086 346.822 511.092 345.013L509.592 345.008ZM509.571 356.551L508.071 356.551C508.07 358.363 508.071 360.271 508.074 362.29L509.574 362.288L511.074 362.286C511.071 360.269 511.07 358.362 511.071 356.551L509.571 356.551ZM509.584 368.085L508.084 368.089C508.088 369.916 508.094 371.825 508.101 373.823L509.601 373.818L511.101 373.813C511.094 371.816 511.088 369.908 511.084 368.082L509.584 368.085ZM509.623 379.572L508.123 379.578C508.13 381.427 508.139 383.346 508.149 385.34L509.649 385.333L511.149 385.326C511.139 383.332 511.13 381.414 511.123 379.565L509.623 379.572ZM509.68 391.095L508.18 391.104C508.185 392.065 508.19 393.043 508.196 394.037L509.696 394.028L511.196 394.02C511.19 393.026 511.185 392.048 511.179 391.087L509.68 391.095ZM509.696 394.028L508.196 394.037C508.202 395.037 508.148 396.011 508.036 396.959L509.526 397.135L511.015 397.311C511.142 396.237 511.203 395.14 511.196 394.02L509.696 394.028ZM508.071 402.916L506.677 402.364C505.993 404.089 505.08 405.733 503.945 407.301L505.159 408.181L506.374 409.061C507.648 407.303 508.684 405.44 509.466 403.469L508.071 402.916ZM501.193 412.605L500.176 411.503C498.802 412.771 497.255 413.982 495.539 415.138L496.377 416.382L497.216 417.626C499.043 416.394 500.712 415.09 502.21 413.708L501.193 412.605ZM491.271 419.417L490.572 418.089C488.89 418.975 487.095 419.822 485.192 420.631L485.779 422.011L486.366 423.392C488.337 422.554 490.207 421.672 491.97 420.744L491.271 419.417ZM480.184 424.176L479.685 422.761C477.852 423.407 475.941 424.024 473.954 424.614L474.38 426.052L474.807 427.49C476.839 426.887 478.798 426.254 480.682 425.59L480.184 424.176ZM468.641 427.629L468.272 426.175C466.33 426.668 464.327 427.14 462.267 427.589L462.586 429.054L462.906 430.52C464.997 430.064 467.033 429.585 469.011 429.082L468.641 427.629ZM456.844 430.224L456.563 428.751C454.617 429.121 452.625 429.474 450.59 429.811L450.835 431.291L451.08 432.771C453.137 432.43 455.152 432.073 457.124 431.698L456.844 430.224ZM444.844 432.219L444.629 430.734C442.705 431.013 440.747 431.278 438.756 431.531L438.945 433.019L439.134 434.507C441.141 434.252 443.117 433.984 445.059 433.703L444.844 432.219ZM432.851 433.744L432.686 432.254C430.727 432.471 428.739 432.679 426.725 432.875L426.871 434.368L427.016 435.861C429.044 435.663 431.044 435.455 433.017 435.235L432.851 433.744ZM420.919 434.913L420.791 433.418C418.788 433.589 416.761 433.751 414.71 433.905L414.821 435.4L414.933 436.896C416.994 436.742 419.033 436.579 421.047 436.407L420.919 434.913ZM408.794 435.821L408.697 434.324C406.735 434.451 404.753 434.571 402.752 434.684L402.836 436.181L402.921 437.679C404.93 437.566 406.92 437.445 408.891 437.317L408.794 435.821ZM396.767 436.499L396.694 435.001C394.68 435.099 392.649 435.189 390.601 435.274L390.663 436.773L390.725 438.271C392.78 438.187 394.818 438.095 396.839 437.997L396.767 436.499ZM384.717 436.999L384.665 435.5C382.671 435.57 380.663 435.634 378.641 435.693L378.684 437.192L378.728 438.691C380.756 438.632 382.77 438.568 384.77 438.498L384.717 436.999ZM372.569 437.354L372.533 435.854C370.548 435.901 368.55 435.944 366.541 435.982L366.57 437.481L366.598 438.981C368.612 438.943 370.614 438.9 372.605 438.853L372.569 437.354ZM360.57 437.582L360.548 436.082C358.54 436.111 356.52 436.136 354.491 436.158L354.507 437.658L354.523 439.158C356.556 439.136 358.579 439.111 360.592 439.082L360.57 437.582ZM348.405 437.711L348.394 436.211C346.413 436.225 344.422 436.235 342.423 436.243L342.429 437.743L342.435 439.243C344.436 439.235 346.43 439.225 348.415 439.211L348.405 437.711ZM336.405 437.756L336.403 436.256C334.389 436.257 332.367 436.256 330.338 436.252L330.335 437.752L330.332 439.252C332.363 439.256 334.388 439.257 336.406 439.256L336.405 437.756ZM324.273 437.732L324.28 436.232C322.287 436.223 320.287 436.212 318.282 436.199L318.272 437.699L318.263 439.199C320.27 439.212 322.271 439.223 324.267 439.232L324.273 437.732ZM312.238 437.654L312.25 436.154C310.234 436.137 308.214 436.119 306.188 436.098L306.173 437.598L306.158 439.098C308.185 439.118 310.207 439.137 312.225 439.154L312.238 437.654ZM300.129 437.533L300.146 436.033C298.145 436.01 296.139 435.986 294.13 435.96L294.111 437.46L294.092 438.96C296.102 438.985 298.109 439.01 300.112 439.033L300.129 437.533ZM288.074 437.38L288.094 435.88C286.079 435.853 284.062 435.824 282.042 435.795L282.02 437.295L281.998 438.794C284.019 438.824 286.037 438.852 288.053 438.88L288.074 437.38ZM275.98 437.205L276.002 435.705C273.994 435.675 271.984 435.644 269.973 435.613L269.95 437.113L269.927 438.613C271.938 438.644 273.948 438.675 275.957 438.705L275.98 437.205ZM263.913 437.018L263.936 435.519C261.923 435.487 259.909 435.455 257.895 435.424L257.871 436.923L257.848 438.423C259.862 438.455 261.876 438.487 263.889 438.518L263.913 437.018ZM251.829 436.829L251.852 435.329C249.838 435.298 247.824 435.267 245.811 435.236L245.788 436.736L245.765 438.236C247.778 438.266 249.791 438.297 251.805 438.329L251.829 436.829ZM239.752 436.646L239.774 435.146C237.763 435.117 235.753 435.088 233.745 435.06L233.725 436.56L233.704 438.06C235.711 438.088 237.72 438.116 239.73 438.146L239.752 436.646ZM227.675 436.479L227.695 434.979C225.675 434.953 223.657 434.928 221.643 434.905L221.625 436.405L221.608 437.904C223.621 437.928 225.637 437.953 227.656 437.979L227.675 436.479ZM215.592 436.338L215.608 434.838C213.599 434.817 211.594 434.798 209.593 434.78L209.58 436.28L209.567 437.78C211.566 437.798 213.57 437.817 215.577 437.838L215.592 436.338ZM203.518 436.232L203.528 434.732C201.503 434.718 199.483 434.706 197.468 434.696L197.46 436.196L197.453 437.696C199.466 437.706 201.484 437.718 203.507 437.732L203.518 436.232ZM191.434 436.174L191.438 434.674C189.433 434.668 187.435 434.666 185.442 434.665L185.442 436.165L185.442 437.665C187.432 437.666 189.428 437.668 191.43 437.674L191.434 436.174ZM179.353 436.174L179.349 434.674C177.32 434.679 175.299 434.688 173.286 434.7L173.295 436.2L173.303 437.7C175.314 437.688 177.332 437.679 179.357 437.674L179.353 436.174ZM167.282 436.245L167.269 434.745C165.26 434.764 163.26 434.786 161.27 434.812L161.289 436.312L161.309 437.812C163.296 437.786 165.292 437.764 167.296 437.745L167.282 436.245ZM155.182 436.404L155.156 434.904C153.128 434.939 151.11 434.978 149.103 435.022L149.135 436.522L149.168 438.021C151.17 437.978 153.184 437.939 155.207 437.904L155.182 436.404ZM143.153 436.666L143.113 435.166C141.083 435.221 139.065 435.28 137.059 435.344L137.107 436.843L137.155 438.342C139.155 438.278 141.168 438.219 143.193 438.165L143.153 436.666ZM131.014 437.056L130.957 435.557C128.937 435.634 126.93 435.716 124.938 435.805L125.005 437.303L125.071 438.802C127.057 438.714 129.057 438.631 131.071 438.555L131.014 437.056ZM119.072 437.588L118.995 436.09C116.925 436.196 114.872 436.31 112.837 436.431L112.926 437.928L113.015 439.426C115.042 439.305 117.087 439.192 119.149 439.086L119.072 437.588ZM106.888 438.313L106.786 436.816C104.788 436.953 102.808 437.096 100.848 437.248L100.964 438.744L101.08 440.24C103.03 440.088 105.001 439.945 106.99 439.809L106.888 438.313ZM94.8741 439.248L94.7422 437.754C92.6944 437.935 90.6699 438.126 88.6698 438.326L88.8195 439.819L88.9691 441.311C90.957 441.112 92.9696 440.923 95.0061 440.743L94.8741 439.248ZM82.9122 440.449L82.7432 438.959C80.6911 439.191 78.6669 439.436 76.672 439.692L76.8633 441.18L77.0546 442.668C79.034 442.413 81.0433 442.171 83.0813 441.94L82.9122 440.449ZM70.8293 442.007L70.6128 440.523C68.6248 440.813 66.6689 441.116 64.7465 441.433L64.9909 442.913L65.2352 444.393C67.1381 444.079 69.0754 443.779 71.0458 443.491L70.8293 442.007ZM58.9354 443.981L58.6579 442.507C56.6278 442.889 54.6396 443.289 52.6952 443.707L53.0105 445.174L53.3258 446.64C55.2437 446.228 57.2066 445.833 59.213 445.455L58.9354 443.981ZM47.2416 446.501L46.883 445.045C44.814 445.554 42.8013 446.088 40.8475 446.646L41.2597 448.088L41.6719 449.53C43.5877 448.983 45.5646 448.459 47.6003 447.958L47.2416 446.501ZM35.6377 449.821L35.1645 448.397C33.1237 449.076 31.1581 449.787 29.2715 450.532L29.8226 451.927L30.3738 453.322C32.2048 452.599 34.1181 451.907 36.1109 451.244L35.6377 449.821ZM24.3923 454.277L23.7492 452.922C21.79 453.851 19.9361 454.829 18.1936 455.856L18.9554 457.148L19.7172 458.44C21.3751 457.463 23.149 456.527 25.0353 455.632L24.3923 454.277ZM14.0738 460.39L13.172 459.192C11.404 460.522 9.79527 461.927 8.35784 463.412L9.43559 464.455L10.5133 465.498C11.8308 464.137 13.3196 462.835 14.9756 461.589L14.0738 460.39ZM5.70936 469.112L4.44916 468.298C3.28539 470.101 2.34235 472 1.63455 473.999L3.04852 474.5L4.46249 475C5.08927 473.23 5.927 471.54 6.96957 469.925L5.70936 469.112ZM1.73737 480.319L0.245729 480.161C0.132193 481.232 0.078334 482.325 0.08487 483.439L1.58484 483.43L3.08482 483.421C3.07892 482.416 3.12756 481.435 3.22902 480.477L1.73737 480.319ZM1.58484 483.43L0.08487 483.439C0.0913388 484.542 0.0974997 485.621 0.103363 486.677L1.60334 486.669L3.10332 486.66C3.09745 485.604 3.09129 484.524 3.08482 483.421L1.58484 483.43ZM1.63639 493.018L0.136406 493.025C0.147132 495.244 0.156391 497.349 0.164305 499.351L1.66429 499.345L3.16428 499.339C3.15636 497.337 3.1471 495.23 3.13637 493.011L1.63639 493.018ZM1.6861 505.726L0.186103 505.73C0.1925 507.987 0.196954 510.093 0.199719 512.066L1.69972 512.064L3.19972 512.062C3.19695 510.087 3.19249 507.98 3.18609 505.722L1.6861 505.726ZM1.7029 518.434L0.202901 518.433C0.201777 520.738 0.198052 522.836 0.192361 524.774L1.69235 524.778L3.19235 524.783C3.19805 522.842 3.20178 520.741 3.2029 518.435L1.7029 518.434ZM1.66452 531.141L0.164543 531.132C0.151241 533.407 0.135569 535.479 0.119269 537.477L1.61922 537.49L3.11917 537.502C3.13548 535.503 3.15117 533.428 3.16449 531.15L1.66452 531.141ZM1.56663 543.839L0.0666764 543.827C0.050885 545.835 0.0363729 547.909 0.0249485 550.182L1.52493 550.189L3.02491 550.197C3.03632 547.928 3.05081 545.857 3.06658 543.85L1.56663 543.839ZM1.50353 556.539L0.00353181 556.536C8.16584e-05 558.477 -0.000989437 560.579 0.000981569 562.889L1.50098 562.887L3.00098 562.886C2.99901 560.579 3.00008 558.48 3.00353 556.542L1.50353 556.539ZM1.51296 569.244L0.0129681 569.248C0.0185695 571.235 0.0261242 573.358 0.0358968 575.637L1.53588 575.63L3.03587 575.624C3.0261 573.347 3.01855 571.225 3.01296 569.24L1.51296 569.244ZM1.56666 581.953L0.066681 581.961C0.0723293 583.007 0.0783854 584.082 0.0848672 585.187L1.58484 585.178L3.08482 585.169C3.07834 584.065 3.07228 582.99 3.06664 581.944L1.56666 581.953ZM1.58484 585.178L0.0848672 585.187C0.091324 586.287 0.128643 587.366 0.19632 588.423L1.69325 588.327L3.19019 588.231C3.12633 587.234 3.09094 586.213 3.08482 585.169L1.58484 585.178ZM2.44279 594.262L0.970066 594.547C1.38334 596.684 1.93833 598.719 2.62902 600.656L4.0419 600.153L5.45478 599.649C4.81677 597.859 4.30103 595.971 3.91551 593.977L2.44279 594.262ZM6.53935 605.678L5.22885 606.408C6.25862 608.257 7.43231 609.995 8.74018 611.628L9.91107 610.691L11.082 609.753C9.87632 608.248 8.79654 606.648 7.84984 604.948L6.53935 605.678ZM14.0577 615.103L13.046 616.211C14.5758 617.608 16.2221 618.91 17.9753 620.122L18.8285 618.889L19.6817 617.655C18.0319 616.514 16.4925 615.296 15.0694 613.996L14.0577 615.103ZM23.9974 622.04L23.2864 623.361C25.0633 624.318 26.9222 625.206 28.856 626.032L29.4451 624.652L30.0342 623.273C28.1764 622.48 26.3994 621.63 24.7084 620.719L23.9974 622.04ZM35.1293 626.828L34.6431 628.247C36.5604 628.904 38.5375 629.512 40.5691 630.075L40.9697 628.63L41.3703 627.184C39.3915 626.636 37.4718 626.045 35.6156 625.409L35.1293 626.828ZM46.812 630.094L46.4813 631.557C48.451 632.002 50.464 632.412 52.5164 632.79L52.7881 631.315L53.0597 629.84C51.0436 629.468 49.0701 629.066 47.1426 628.631L46.812 630.094ZM58.7806 632.313L58.5579 633.796C60.5424 634.094 62.5585 634.366 64.6029 634.616L64.7847 633.127L64.9664 631.638C62.9471 631.392 60.9584 631.123 59.0032 630.829L58.7806 632.313ZM70.8678 633.796L70.7208 635.288C72.7113 635.484 74.7249 635.662 76.7589 635.823L76.8773 634.328L76.9957 632.832C74.9792 632.673 72.9848 632.497 71.0148 632.303L70.8678 633.796ZM82.9742 634.759L82.8802 636.256C84.8829 636.382 86.9026 636.494 88.9366 636.595L89.0107 635.097L89.0848 633.599C87.0629 633.499 85.0567 633.387 83.0683 633.262L82.9742 634.759ZM95.1015 635.363L95.044 636.862C97.0569 636.939 99.0814 637.007 101.115 637.067L101.16 635.568L101.204 634.068C99.1778 634.009 97.1622 633.941 95.1591 633.864L95.1015 635.363ZM107.245 635.725L107.211 637.225C109.23 637.27 111.256 637.31 113.287 637.345L113.313 635.845L113.34 634.346C111.313 634.31 109.292 634.271 107.279 634.226L107.245 635.725ZM119.395 635.94L119.375 637.439C121.398 637.467 123.424 637.493 125.45 637.517L125.468 636.017L125.486 634.517C123.461 634.493 121.437 634.468 119.416 634.44L119.395 635.94ZM131.548 636.088L131.531 637.588C133.557 637.612 135.582 637.636 137.604 637.662L137.623 636.162L137.642 634.662C135.619 634.636 133.592 634.612 131.566 634.588L131.548 636.088ZM143.702 636.248L143.679 637.748C145.707 637.78 147.73 637.815 149.745 637.856L149.775 636.356L149.806 634.856C147.785 634.816 145.758 634.78 143.726 634.748L143.702 636.248ZM155.856 636.497L155.816 637.996C157.845 638.05 159.864 638.111 161.871 638.18L161.923 636.681L161.974 635.182C159.959 635.112 157.932 635.051 155.895 634.997L155.856 636.497ZM168.006 636.921L167.939 638.42C169.966 638.511 171.977 638.612 173.97 638.727L174.056 637.229L174.142 635.732C172.135 635.616 170.111 635.514 168.074 635.423L168.006 636.921ZM180.145 637.623L180.037 639.119C182.054 639.266 184.05 639.428 186.022 639.607L186.158 638.113L186.294 636.62C184.302 636.439 182.288 636.275 180.254 636.127L180.145 637.623ZM192.251 638.733L192.082 640.224C194.098 640.452 196.085 640.702 198.039 640.975L198.246 639.489L198.454 638.004C196.472 637.727 194.46 637.474 192.42 637.243L192.251 638.733ZM204.273 640.426L204.018 641.905C206.034 642.252 208.008 642.629 209.938 643.038L210.249 641.571L210.56 640.103C208.59 639.686 206.578 639.302 204.528 638.948L204.273 640.426ZM216.104 642.949L215.726 644.4C217.722 644.921 219.659 645.482 221.533 646.088L221.994 644.661L222.456 643.234C220.522 642.608 218.529 642.031 216.482 641.497L216.104 642.949ZM227.706 646.725L227.145 648.116C229.018 648.872 230.81 649.683 232.518 650.552L233.199 649.215L233.879 647.878C232.087 646.966 230.214 646.12 228.267 645.334L227.706 646.725ZM238.466 652.257L237.643 653.512C239.323 654.613 240.891 655.79 242.342 657.049L243.325 655.916L244.307 654.783C242.748 653.43 241.071 652.172 239.288 651.003L238.466 652.257ZM247.58 660.219L246.432 661.185C247.677 662.663 248.792 664.236 249.77 665.911L251.065 665.154L252.361 664.398C251.294 662.572 250.079 660.859 248.727 659.253L247.58 660.219ZM253.66 670.638L252.254 671.162C252.915 672.936 253.449 674.811 253.849 676.794L255.32 676.497L256.79 676.201C256.36 674.069 255.783 672.041 255.066 670.115L253.66 670.638ZM256.099 682.435L254.603 682.534C254.669 683.529 254.705 684.548 254.711 685.592L256.211 685.583L257.711 685.575C257.705 684.472 257.666 683.393 257.596 682.336L256.099 682.435Z" fill="#936639"/>
</svg>
