<svg width="100" height="100" viewBox="0 0 100 100" fill="none" xmlns="http://www.w3.org/2000/svg">
<path d="M90.6293 12.8079H79.5724V9.38756C79.5724 8.06683 78.5057 7.00009 77.1849 7.00009C75.8642 7.00009 74.7975 8.06683 74.7975 9.38756V12.8079H25.2193V9.38756C25.2193 8.06683 24.1526 7.00009 22.8318 7.00009C21.5111 7.00009 20.4444 8.06683 20.4444 9.38756V12.8079H9.38747C8.06674 12.8079 7 13.8747 7 15.1954V75.4579C7 76.1521 7.30478 76.8125 7.82969 77.2697L25.3717 92.4242C25.8119 92.7967 26.3538 92.9999 26.9295 92.9999H90.6124C91.9331 92.9999 92.9998 91.9331 92.9998 90.6124V15.1954C93.0168 13.8747 91.95 12.8079 90.6293 12.8079ZM11.7749 17.5829H20.4444V21.0032C20.4444 22.3239 21.5111 23.3907 22.8318 23.3907C24.1526 23.3907 25.2193 22.3239 25.2193 21.0032V17.5829H74.7805V21.0032C74.7805 22.3239 75.8473 23.3907 77.168 23.3907C78.4887 23.3907 79.5555 22.3239 79.5555 21.0032V17.5829H88.2249V27.6407H11.7749V17.5829ZM24.542 85.4142L15.8049 77.8623H24.542V85.4142ZM88.2418 88.2419H29.3339V75.4748C29.3339 74.1541 28.2671 73.0874 26.9464 73.0874H11.7749V32.4157H88.2418V88.2419Z" fill="#333D29"/>
<path d="M24.1018 39.3746H21.8836C20.5629 39.3746 19.4961 40.4413 19.4961 41.7621C19.4961 43.0828 20.5629 44.1495 21.8836 44.1495H24.1018C25.4225 44.1495 26.4892 43.0828 26.4892 41.7621C26.4892 40.4413 25.4225 39.3746 24.1018 39.3746Z" fill="#333D29"/>
<path d="M37.6308 39.3746H35.3957C34.075 39.3746 33.0082 40.4413 33.0082 41.7621C33.0082 43.0828 34.075 44.1495 35.3957 44.1495H37.6308C38.9515 44.1495 40.0182 43.0828 40.0182 41.7621C40.0182 40.4413 38.9515 39.3746 37.6308 39.3746Z" fill="#333D29"/>
<path d="M51.1259 39.3746H48.8908C47.5701 39.3746 46.5033 40.4413 46.5033 41.7621C46.5033 43.0828 47.5701 44.1495 48.8908 44.1495H51.1259C52.4466 44.1495 53.5134 43.0828 53.5134 41.7621C53.5134 40.4413 52.4466 39.3746 51.1259 39.3746Z" fill="#333D29"/>
<path d="M64.638 39.3746H62.4029C61.0822 39.3746 60.0155 40.4413 60.0155 41.7621C60.0155 43.0828 61.0822 44.1495 62.4029 44.1495H64.638C65.9587 44.1495 67.0255 43.0828 67.0255 41.7621C67.0255 40.4413 65.9587 39.3746 64.638 39.3746Z" fill="#333D29"/>
<path d="M78.1501 39.3746H75.915C74.5943 39.3746 73.5275 40.4413 73.5275 41.7621C73.5275 43.0828 74.5943 44.1495 75.915 44.1495H78.1501C79.4708 44.1495 80.5376 43.0828 80.5376 41.7621C80.5376 40.4413 79.4708 39.3746 78.1501 39.3746Z" fill="#333D29"/>
<path d="M24.1018 51.7522H21.8836C20.5629 51.7522 19.4961 52.819 19.4961 54.1397C19.4961 55.4604 20.5629 56.5272 21.8836 56.5272H24.1018C25.4225 56.5272 26.4892 55.4604 26.4892 54.1397C26.4892 52.819 25.4225 51.7522 24.1018 51.7522Z" fill="#333D29"/>
<path d="M37.6308 51.7522H35.3957C34.0749 51.7522 33.0082 52.819 33.0082 54.1397C32.9913 55.4604 34.0749 56.5272 35.3957 56.5272H37.6308C38.9515 56.5272 40.0182 55.4604 40.0182 54.1397C40.0182 52.819 38.9515 51.7522 37.6308 51.7522Z" fill="#333D29"/>
<path d="M51.1259 51.7522H48.8908C47.5701 51.7522 46.5033 52.819 46.5033 54.1397C46.5033 55.4604 47.5701 56.5272 48.8908 56.5272H51.1259C52.4466 56.5272 53.5134 55.4604 53.5134 54.1397C53.5134 52.819 52.4466 51.7522 51.1259 51.7522Z" fill="#333D29"/>
<path d="M64.638 51.7522H62.4029C61.0822 51.7522 60.0155 52.819 60.0155 54.1397C60.0155 55.4604 61.0822 56.5272 62.4029 56.5272H64.638C65.9587 56.5272 67.0255 55.4604 67.0255 54.1397C67.0255 52.819 65.9587 51.7522 64.638 51.7522Z" fill="#333D29"/>
<path d="M78.1501 51.7522H75.915C74.5943 51.7522 73.5275 52.819 73.5275 54.1397C73.5106 55.4604 74.5943 56.5272 75.915 56.5272H78.1501C79.4708 56.5272 80.5375 55.4604 80.5375 54.1397C80.5375 52.819 79.4708 51.7522 78.1501 51.7522Z" fill="#333D29"/>
<path d="M24.1018 64.1298H21.8836C20.5629 64.1298 19.4961 65.1966 19.4961 66.5173C19.4961 67.838 20.5629 68.9048 21.8836 68.9048H24.1018C25.4225 68.9048 26.4892 67.838 26.4892 66.5173C26.4892 65.1966 25.4225 64.1298 24.1018 64.1298Z" fill="#333D29"/>
<path d="M37.6308 64.1298H35.3957C34.0749 64.1298 33.0082 65.1966 33.0082 66.5173C32.9913 67.838 34.0749 68.9048 35.3957 68.9048H37.6308C38.9515 68.9048 40.0182 67.838 40.0182 66.5173C40.0182 65.1966 38.9515 64.1298 37.6308 64.1298Z" fill="#333D29"/>
<path d="M51.1259 64.1298H48.8908C47.5701 64.1298 46.5033 65.1966 46.5033 66.5173C46.5033 67.838 47.5701 68.9048 48.8908 68.9048H51.1259C52.4466 68.9048 53.5134 67.838 53.5134 66.5173C53.5134 65.1966 52.4466 64.1298 51.1259 64.1298Z" fill="#333D29"/>
<path d="M64.638 64.1298H62.4029C61.0822 64.1298 60.0155 65.1966 60.0155 66.5173C60.0155 67.838 61.0822 68.9048 62.4029 68.9048H64.638C65.9587 68.9048 67.0255 67.838 67.0255 66.5173C67.0255 65.1966 65.9587 64.1298 64.638 64.1298Z" fill="#333D29"/>
<path d="M78.1501 64.1298H75.915C74.5943 64.1298 73.5275 65.1966 73.5275 66.5173C73.5106 67.838 74.5943 68.9048 75.915 68.9048H78.1501C79.4708 68.9048 80.5375 67.838 80.5375 66.5173C80.5375 65.1966 79.4708 64.1298 78.1501 64.1298Z" fill="#333D29"/>
<path d="M37.6308 76.5244H35.3957C34.0749 76.5244 33.0082 77.5911 33.0082 78.9118C32.9913 80.2156 34.0749 81.2993 35.3957 81.2993H37.6308C38.9515 81.2993 40.0182 80.2326 40.0182 78.9118C40.0182 77.5911 38.9515 76.5244 37.6308 76.5244Z" fill="#333D29"/>
<path d="M51.1259 76.5244H48.8908C47.5701 76.5244 46.5033 77.5911 46.5033 78.9118C46.5033 80.2156 47.5701 81.2993 48.8908 81.2993H51.1259C52.4466 81.2993 53.5134 80.2326 53.5134 78.9118C53.5134 77.5911 52.4466 76.5244 51.1259 76.5244Z" fill="#333D29"/>
<path d="M64.638 76.5244H62.4029C61.0822 76.5244 60.0155 77.5911 60.0155 78.9118C60.0155 80.2156 61.0822 81.2993 62.4029 81.2993H64.638C65.9587 81.2993 67.0255 80.2326 67.0255 78.9118C67.0255 77.5911 65.9587 76.5244 64.638 76.5244Z" fill="#333D29"/>
<path d="M78.1501 76.5244H75.915C74.5943 76.5244 73.5275 77.5911 73.5275 78.9118C73.5106 80.2156 74.5943 81.2993 75.915 81.2993H78.1501C79.4708 81.2993 80.5375 80.2326 80.5375 78.9118C80.5375 77.5911 79.4708 76.5244 78.1501 76.5244Z" fill="#333D29"/>
</svg>
