<svg width="32" height="32" viewBox="0 0 32 32" fill="none" xmlns="http://www.w3.org/2000/svg">
<path d="M16.3607 31.1734H15.6407V24.5814L8.04475 25.5304C7.92075 25.5454 7.79975 25.4964 7.72175 25.4014C7.64275 25.3054 7.61875 25.1764 7.65875 25.0584L8.57575 22.3054L0.783749 16.4604C0.676749 16.3794 0.622749 16.2474 0.643749 16.1144C0.664749 15.9814 0.758749 15.8724 0.885749 15.8304L3.49175 14.9614L1.67775 11.3334C1.61475 11.2074 1.63075 11.0564 1.71875 10.9474C1.80675 10.8384 1.94875 10.7874 2.08675 10.8234L5.76375 11.7424L6.65875 9.05836C6.69775 8.93936 6.79575 8.85036 6.91775 8.82136C7.03875 8.79336 7.16675 8.82936 7.25475 8.91736L11.3807 13.0424L9.64875 5.25136C9.62075 5.12536 9.66275 4.99236 9.75875 4.90636C9.85575 4.81936 9.99275 4.79136 10.1137 4.83236L12.8407 5.74136L15.6927 0.989356C15.8227 0.772356 16.1797 0.772356 16.3097 0.989356L19.1617 5.74136L21.8887 4.83236C22.0147 4.79136 22.1477 4.81936 22.2437 4.90636C22.3407 4.99236 22.3827 5.12536 22.3537 5.25136L20.6227 13.0444L24.7477 8.91936C24.8357 8.83136 24.9627 8.79436 25.0857 8.82336C25.2067 8.85236 25.3047 8.94136 25.3447 9.06036L26.2397 11.7444L29.9167 10.8254C30.0497 10.7924 30.1967 10.8394 30.2847 10.9494C30.3727 11.0584 30.3887 11.2094 30.3257 11.3354L28.5097 14.9634L31.1157 15.8324C31.2427 15.8744 31.3357 15.9834 31.3567 16.1164C31.3777 16.2494 31.3247 16.3814 31.2167 16.4624L23.4247 22.3064L24.3427 25.0604C24.3817 25.1784 24.3577 25.3074 24.2797 25.4034C24.2027 25.4994 24.0877 25.5494 23.9567 25.5324L16.3607 24.5834V31.1734Z" fill="#333D29"/>
</svg>
