<svg width="32" height="32" viewBox="0 0 32 32" fill="none" xmlns="http://www.w3.org/2000/svg">
<g clip-path="url(#clip0_60_772)">
<path d="M16.3605 31.1733H15.6405V24.5813L8.0445 25.5303C7.9205 25.5453 7.7995 25.4963 7.7215 25.4013C7.6425 25.3053 7.6185 25.1763 7.6585 25.0583L8.5755 22.3053L0.783505 16.4603C0.676505 16.3793 0.622505 16.2473 0.643505 16.1143C0.664505 15.9813 0.758505 15.8723 0.885505 15.8303L3.4915 14.9613L1.6775 11.3333C1.6145 11.2073 1.6305 11.0563 1.7185 10.9473C1.8065 10.8383 1.9485 10.7873 2.0865 10.8233L5.7635 11.7423L6.6585 9.05833C6.6975 8.93933 6.7955 8.85032 6.9175 8.82132C7.0385 8.79332 7.1665 8.82933 7.2545 8.91733L11.3805 13.0423L9.64851 5.25133C9.62051 5.12533 9.66251 4.99232 9.7585 4.90632C9.8555 4.81932 9.99251 4.79133 10.1135 4.83232L12.8405 5.74132L15.6925 0.989325C15.8225 0.772325 16.1795 0.772325 16.3095 0.989325L19.1615 5.74132L21.8885 4.83232C22.0145 4.79133 22.1475 4.81932 22.2435 4.90632C22.3405 4.99232 22.3825 5.12533 22.3535 5.25133L20.6225 13.0443L24.7475 8.91933C24.8355 8.83133 24.9625 8.79432 25.0855 8.82332C25.2065 8.85232 25.3045 8.94133 25.3445 9.06033L26.2395 11.7443L29.9165 10.8253C30.0495 10.7923 30.1965 10.8393 30.2845 10.9493C30.3725 11.0583 30.3885 11.2093 30.3255 11.3353L28.5095 14.9633L31.1155 15.8323C31.2425 15.8743 31.3355 15.9833 31.3565 16.1163C31.3775 16.2493 31.3245 16.3813 31.2165 16.4623L23.4245 22.3063L24.3425 25.0603C24.3815 25.1783 24.3575 25.3073 24.2795 25.4033C24.2025 25.4993 24.0875 25.5493 23.9565 25.5323L16.3605 24.5833V31.1733Z" fill="#333D29"/>
</g>
<defs>
<clipPath id="clip0_60_772">
<rect width="32" height="32" fill="white"/>
</clipPath>
</defs>
</svg>
