<svg width="40" height="40" viewBox="0 0 40 40" fill="none" xmlns="http://www.w3.org/2000/svg">
<path d="M18.6113 36.375V20.7917L5 12.9167V26.9304C5 27.4304 5.12264 27.8935 5.36792 28.3196C5.61347 28.7454 5.95375 29.0833 6.38875 29.3333L18.6113 36.375ZM21.3888 36.375L33.6113 29.3333C34.0463 29.0833 34.3865 28.7454 34.6321 28.3196C34.8774 27.8935 35 27.4304 35 26.9304V12.8888L21.3888 20.7917V36.375ZM28.1529 13.6804L33.4863 10.5833L21.3888 3.625C20.9538 3.375 20.4908 3.25 20 3.25C19.5092 3.25 19.0463 3.375 18.6113 3.625L14.625 5.91667L28.1529 13.6804ZM20 18.4167L25.3471 15.3054L11.8333 7.52792L6.5 10.625L20 18.4167Z" fill="#333D29"/>
</svg>
