<svg width="100" height="100" viewBox="0 0 100 100" fill="none" xmlns="http://www.w3.org/2000/svg">
<g clip-path="url(#clip0_181_44)">
<path d="M72.9426 67.5461C73.548 65.1461 72.5574 62.5643 70.3357 61.2111L62.3644 56.3576V51.1996C62.3644 51.198 62.3646 51.1967 62.3646 51.1953V42.6557C62.3646 40.2955 61.6789 38.0436 60.4623 36.1305C65.3316 34.6057 68.8748 30.0525 68.8748 24.6869V17.8395C69.0031 17.524 69.0633 17.1814 69.0408 16.8346C68.3875 6.76543 61.89 0 52.8721 0C43.1508 0 36.8695 7.06934 36.8695 18.0098V29.3203H13.1867C11.9293 29.3203 10.9102 30.3398 10.9102 31.5969V95.2908C10.9102 96.5478 11.9293 97.5674 13.1867 97.5674H64.7371V97.7236C64.7371 98.9807 65.7566 100 67.0137 100H75.4986C76.7557 100 77.7752 98.9807 77.7752 97.7236V81.0703V76.5267C77.775 72.9002 75.9189 69.5197 72.9426 67.5461ZM67.9674 65.1002C68.5371 65.4469 68.7268 66.1736 68.399 66.7549C68.1781 67.1459 67.8334 67.2883 67.6471 67.3383C67.4611 67.3889 67.0908 67.4379 66.7037 67.2103L53.1209 59.2135C52.0934 58.1801 51.5851 56.9943 51.6861 55.8531C51.6875 55.8383 51.6887 55.8232 51.6896 55.8086L52.4541 44.6795H57.0502L56.234 56.5168C56.1754 57.3652 56.5947 58.1754 57.3211 58.6178L67.9674 65.1002ZM64.3215 24.6867C64.3215 28.7865 60.9861 32.1219 56.8863 32.1219C56.668 32.1219 56.4496 32.1119 56.232 32.0922C56.2264 32.0891 56.2207 32.0861 56.215 32.0826C56.2111 32.0603 56.2068 32.0398 56.2029 32.0176C56.1902 31.9428 56.1787 31.8652 56.1664 31.7896C56.1234 31.5273 56.0826 31.257 56.0439 30.9795C56.0187 30.7969 55.993 30.6152 55.9699 30.4287C55.9588 30.3385 55.9494 30.2428 55.9389 30.151C55.916 29.9531 55.8932 29.7555 55.873 29.5531C55.8635 29.4574 55.8557 29.357 55.8469 29.26C55.8281 29.0566 55.8094 28.8535 55.7932 28.6459C55.785 28.5398 55.7785 28.4289 55.7711 28.3211C55.7568 28.1178 55.7424 27.915 55.7307 27.7076C55.7234 27.5803 55.7184 27.4477 55.7119 27.3182C55.7025 27.1254 55.6926 26.9336 55.6853 26.7377C55.6789 26.566 55.6754 26.3875 55.6705 26.2117C55.6662 26.052 55.6607 25.8943 55.6578 25.7324C55.6517 25.3912 55.6482 25.0432 55.6482 24.6865V19.2586H64.3213V24.6865L64.3215 24.6867ZM41.4227 31.5969V18.0098C41.4227 14.8531 42.2484 4.55312 52.8721 4.55312C59.7549 4.55312 63.134 9.5957 64.174 14.7057H53.3723C52.1152 14.7057 51.0957 15.7252 51.0957 16.9822V24.6869C51.0957 32.391 52.4336 37.092 54.0635 40.126H50.3291H42.4246H42.392H41.4227V31.5969ZM47.8906 44.6793L47.5994 48.9184H44.7012V44.6793H47.8906ZM64.6059 93.0143H15.4633V33.8734H36.8697V42.4025V42.4027C36.8697 43.6598 37.8889 44.6793 39.1463 44.6793H40.1156V51.1949V69.3535C40.1156 69.6332 40.1289 69.9101 40.1482 70.1851V79.2775C40.1482 80.5346 41.1674 81.5541 42.4248 81.5541H64.606L64.6059 93.0143ZM73.2219 95.4469H69.29V83.3467H73.2219V95.4469ZM73.2221 78.7935H69.2885C69.2426 77.5768 68.2414 76.6047 67.0135 76.6047H51.9195C48.149 76.6047 45.043 73.7119 44.701 70.0291V53.4715H47.2867L47.149 55.4758C46.9254 58.0918 47.999 60.6557 50.174 62.6973C50.2969 62.8125 50.432 62.9137 50.5771 62.9992L57.9273 67.3268C57.8529 67.552 57.8109 67.7918 57.8109 68.0418C57.8109 69.2988 58.8305 70.3184 60.0875 70.3184H63.0086L64.3936 71.1338C65.2957 71.6648 66.2988 71.9363 67.3168 71.9363C67.8205 71.9363 68.3283 71.8697 68.8289 71.7352C69.3057 71.607 69.7568 71.4221 70.1752 71.1865C72.0416 72.2965 73.2217 74.3324 73.2217 76.5267V78.7935H73.2221Z" fill="#333D29"/>
<path d="M21.4719 45.2291C20.2145 45.2291 19.1953 46.2486 19.1953 47.5057V84.6555C19.1953 85.9125 20.2145 86.932 21.4719 86.932C22.7293 86.932 23.7484 85.9127 23.7484 84.6555V47.5057C23.7484 46.2482 22.7293 45.2291 21.4719 45.2291Z" fill="#333D29"/>
<path d="M77.451 41.3404C77.451 40.8783 77.5338 40.7707 77.9324 40.2541C78.5017 39.5162 79.3627 38.401 79.3627 36.3857C79.3627 35.1287 78.3433 34.1092 77.0861 34.1092C75.8289 34.1092 74.8095 35.1285 74.8095 36.3857C74.8095 36.848 74.7267 36.9559 74.3279 37.4723C73.7584 38.2102 72.8978 39.3256 72.8978 41.3404C72.8978 43.3559 73.7584 44.4711 74.3279 45.2092C74.7267 45.726 74.8095 45.8334 74.8095 46.2961C74.8095 46.759 74.7267 46.8666 74.3279 47.3834C73.7584 48.1213 72.8978 49.2367 72.8978 51.2518C72.8978 52.5088 73.9174 53.5283 75.1744 53.5283C76.4314 53.5283 77.451 52.509 77.451 51.2518C77.451 50.7893 77.5338 50.6814 77.9326 50.1648C78.5021 49.4268 79.3627 48.3113 79.3627 46.2961C79.3627 44.2809 78.5021 43.1656 77.9326 42.4277C77.534 41.9107 77.451 41.8033 77.451 41.3404Z" fill="#333D29"/>
<path d="M87.1781 45.6803C87.1781 45.218 87.2609 45.1102 87.6598 44.5937C88.2293 43.8557 89.0898 42.7404 89.0898 40.7254C89.0898 39.4684 88.0705 38.4488 86.8133 38.4488C85.5561 38.4488 84.5367 39.4684 84.5367 40.7254C84.5367 41.1877 84.4539 41.2955 84.0551 41.8119C83.4855 42.55 82.625 43.6652 82.625 45.6803C82.625 47.6953 83.4855 48.8107 84.0551 49.5486C84.4539 50.0656 84.5367 50.173 84.5367 50.6359C84.5367 51.0986 84.4539 51.2062 84.0551 51.7229C83.4855 52.4609 82.625 53.5764 82.625 55.5916C82.625 56.8486 83.6445 57.8682 84.9016 57.8682C86.1586 57.8682 87.1781 56.8486 87.1781 55.5916C87.1781 55.1287 87.2609 55.0211 87.6598 54.5045C88.2293 53.7664 89.0898 52.651 89.0898 50.6359C89.0898 48.6209 88.2293 47.5053 87.6598 46.7672C87.2609 46.2506 87.1781 46.1428 87.1781 45.6803Z" fill="#333D29"/>
</g>
<defs>
<clipPath id="clip0_181_44">
<rect width="100" height="100" fill="white"/>
</clipPath>
</defs>
</svg>
