<svg width="100" height="100" viewBox="0 0 100 100" fill="none" xmlns="http://www.w3.org/2000/svg">
<path d="M5.6875 13C2.57031 13 0 15.5703 0 18.6875V71C0 74.3203 2.67969 77 6 77H14.1875C15.1406 82.6719 20.0703 87 26 87C31.9297 87 36.8594 82.6719 37.8125 77H56.3125C57.7891 77 59.1094 76.375 60.125 75.4375C61.1641 76.3516 62.4922 76.9844 64 77H66.1875C67.1406 82.6719 72.0703 87 78 87C84.6016 87 90 81.6016 90 75C90 68.3984 84.6016 63 78 63C72.0703 63 67.1406 67.3281 66.1875 73H64C63.625 73 63.0547 72.7422 62.625 72.3125C62.1953 71.8828 62 71.3672 62 71V33C62 32.25 63.25 31 64 31H80C81.5703 31 83.7812 32.6797 85.3125 34.5C85.3281 34.5234 85.3594 34.5391 85.375 34.5625L85.6875 35H76C72.8125 35 70 37.5781 70 41V49C70 50.6641 70.75 52.125 71.8125 53.1875C72.875 54.25 74.3359 55 76 55H96V71C96 71.75 94.75 73 94 73H90V77H94C97.3203 77 100 74.3203 100 71V51.75C100 47.1719 96.8125 43.125 96.8125 43.125H96.75L88.5 32.125V32.0625L88.4375 32C86.5938 29.7734 83.8281 27 80 27H64C63.2891 27 62.6328 27.1484 62 27.375V18.8125C62 15.7422 59.5781 13 56.375 13H5.6875ZM5.6875 17H56.375C57.2344 17 58 17.8281 58 18.8125V71.3125C58 72.25 57.2578 73 56.3125 73H37.8125C36.8594 67.3281 31.9297 63 26 63C20.0703 63 15.1406 67.3281 14.1875 73H6C5.25 73 4 71.7422 4 71V18.6875C4 17.75 4.73438 17 5.6875 17ZM76 39H88.6875L93.5625 45.5C93.5625 45.5 95.375 48.6016 95.75 51H76C75.6641 51 75.125 50.75 74.6875 50.3125C74.25 49.875 74 49.3359 74 49V41C74 39.9922 75.1875 39 76 39ZM26 67C30.4453 67 34 70.5547 34 75C34 79.4453 30.4453 83 26 83C21.5547 83 18 79.4453 18 75C18 70.5547 21.5547 67 26 67ZM78 67C82.4453 67 86 70.5547 86 75C86 79.4453 82.4453 83 78 83C73.5547 83 70 79.4453 70 75C70 70.5547 73.5547 67 78 67Z" fill="#333D29"/>
</svg>
